<svg width="138.1967mm" height="179.31055mm" viewBox="0 0 138.1967 179.31055" xmlns="http://www.w3.org/2000/svg">
    <path d="m 8827.712,1891.7605 c -3.2716,-0.05 -6.7069,0.3621 -10.312,1.3049 -42.5108,11.1177 -57.3784,58.5995 -59.5969,108.8946 -1.8718,42.435 33.6934,60.2315 59.3297,60.3095 73.9846,0.2248 71.1559,-72.937 67.9488,-89.6529 -2.9564,-15.4101 -18.7649,-80.2705 -57.3696,-80.8561 z" fill="#ae92c6" paint-order="fill markers stroke" transform="translate(-227.90166,61.9688) translate(-8525.6049,-1949.6676)"/>
    <path d="m 8814.2227,1894.2813 c -3.1125,-0.02 -9.0749,2.683 -9.0749,2.683 1.2713,1.4599 7.2997,5.4841 10.0614,6.0167 2.762,0.5326 10.9818,-1.598 13.4808,-3.1368 2.499,-1.5387 3.836,-4.3005 3.836,-4.3005 0,0 -15.1904,-1.2427 -18.3033,-1.2624 z m 20.9806,8.6403 c -0.016,1e-4 -0.025,5e-4 -0.025,5e-4 -0.3725,1.8149 0.7234,3.7679 1.4248,5.5433 0.7014,1.7755 2.0825,2.2686 3.3538,1.3808 1.2713,-0.8877 1.4691,-1.7756 -0.5695,-4.3992 -1.9112,-2.4598 -3.9385,-2.5266 -4.1843,-2.5254 z m -31.5458,2.0128 c 0,0 -5.1955,2.4852 -6.4229,3.9253 -1.2276,1.4401 -2.3453,2.979 -0.1313,5.2674 0.811,1.0061 2.3234,-0.4338 4.099,-2.5249 1.7754,-2.0911 2.4552,-6.6678 2.4552,-6.6678 z m 23.8052,1.7161 c -0.1974,1.7952 -0.3726,4.4388 0.4822,6.7469 0.8549,2.3081 0.9428,3.8467 2.806,2.742 1.8632,-1.1047 1.4466,-2.032 0.3943,-5.1687 -1.0522,-3.1366 -3.6825,-4.3202 -3.6825,-4.3202 z m -16.0016,0.6114 c 0,0 -2.3893,2.8015 -3.4416,4.9123 -1.052,2.1108 -1.6217,4.4388 -0.6573,4.9517 3.1345,1.4203 3.1784,-1.6571 3.7263,-3.1761 0.548,-1.5191 0.3726,-6.6879 0.3726,-6.6879 z m 42.9199,1.1441 -3.529,0.3948 c -1.3592,0.6313 -3.4857,5.208 -2.5652,5.7604 0.9207,0.5524 4.8009,0.5128 6.0503,-0.1974 1.2496,-0.7101 5.1071,2.5647 5.1071,2.5647 l -1.8629,6.7468 c 0,0 -1.7757,7.5556 -0.57,8.1474 1.2057,0.5918 1.7318,0.3946 3.9894,-1.8149 2.258,-2.2095 3.9016,-7.398 3.9016,-7.398 z m -35.5767,0.5328 c 0,0 -2.0386,5.228 -2.1921,7.1613 -0.1535,1.9332 -0.3067,5.247 1.7539,5.1878 2.0603,-0.059 2.5203,-2.6431 2.8712,-5.9376 0.3506,-3.2945 -2.433,-6.4115 -2.433,-6.4115 z m -33.1214,7.0626 -4.0117,0.355 c -2.5476,6.0991 -8.402,11.2209 -7.4088,18.3663 0.7234,1.1441 3.3097,5.2473 4.5594,4.9909 1.2493,-0.2565 2.1261,-3.7482 0.8108,-5.9774 -1.3152,-2.2292 -2.2138,-5.5831 -2.2138,-5.5831 l 4.7568,-7.1608 c 0,0 3.3538,0.631 4.0333,-0.3948 0.6797,-1.0258 -0.526,-4.5961 -0.526,-4.5961 z m 50.955,3.5936 c -1.0359,-0.013 -2.8397,2.1053 -3.2567,3.607 -0.4603,1.6571 -0.3725,4.5368 -1.4464,5.0498 -1.0742,0.5129 -2.7401,-1.4793 -4.3403,-2.5249 -1.6002,-1.0452 -4.4939,-0.454 -5.3268,1.6371 -0.8332,2.0911 5.8085,4.6954 6.6854,6.0369 0.8768,1.3411 -0.7887,4.0246 -1.9069,5.4844 -1.1178,1.4599 -0.4165,3.8863 1.2056,4.8333 1.9291,-0.3157 5.0416,-3.7683 5.0416,-3.7683 0,0 0.5698,1.5586 1.4686,3.8272 0.8988,2.2687 3.5295,2.4461 5.2829,1.4598 1.7536,-0.9864 0.9648,-7.4967 0.9648,-7.4967 0,0 2.3233,1.2823 5.7867,0.5721 3.4634,-0.7101 1.7317,-1.6571 -0.4165,-3.7285 -2.1484,-2.0713 -2.1698,-2.6824 -0.1095,-3.9449 2.0606,-1.2626 2.28,-3.8864 0.3509,-5.1687 -1.9291,-1.2823 -5.064,2.8602 -6.6203,3.452 -1.5565,0.5918 -2.7179,-0.947 -2.3673,-3.1368 0.3508,-2.1897 0.2411,-5.5828 -0.7013,-6.1154 -0.088,-0.05 -0.1873,-0.074 -0.2945,-0.075 z m -29.2757,3.3083 c -0.5809,0.01 -1.2608,0.3377 -2.1048,0.8506 -1.6877,1.0258 -3.5073,3.5512 -4.976,2.3084 -1.4687,-1.2428 -3.6383,-3.8471 -6.181,-2.8805 -2.5429,0.9666 -0.1976,2.9593 0.6134,6.1552 0,0 -2.192,1.3807 -3.3977,1.6371 -1.2057,0.2565 -5.3263,2.6042 -5.5893,5.0504 -0.263,2.4462 5.8087,1.9924 7.9788,1.5782 2.1701,-0.4143 0.7013,2.4266 -0.8552,4.3599 -1.5563,1.933 -2.6082,4.2612 -1.293,5.9578 1.3153,1.6965 5.1732,1.3411 6.0937,-0.1582 0.9207,-1.4993 2.0169,-3.176 3.2882,-2.1502 1.2716,1.0258 1.6441,1.4006 4.2307,0.5524 2.5865,-0.8483 1.6217,-1.8149 1.0082,-4.6162 -0.6138,-2.8013 0.022,-3.2548 2.9813,-2.9983 2.9593,0.2564 3.8578,-0.2762 4.7563,-2.249 0.8988,-1.9727 -0.6792,-3.6893 -3.9672,-3.8866 -3.288,-0.1972 -3.2662,-1.7357 -1.5565,-2.7812 1.7098,-1.0456 1.3809,-4.0835 0.4821,-5.642 -0.4492,-0.7792 -0.9315,-1.0952 -1.512,-1.0878 z m 26.9869,7.6311 c 0.1045,0 0.2191,0.01 0.3452,0.025 1.3446,0.1956 2.2343,0.8841 2.3999,2.113 0.1654,1.2288 0.1446,3.3886 -1.4588,3.1745 -1.6031,-0.2141 -2.6479,-3.5745 -2.6479,-3.5745 0.2906,-0.8352 0.3517,-1.7241 1.3616,-1.7378 z m -33.5519,1.9905 c 1.3378,0 2.1122,1.1547 1.8929,2.605 -0.2381,1.5732 -2.8552,2.7371 -3.3931,2.4671 -0.5379,-0.27 -1.0862,-2.6159 -1.0862,-2.6159 0.4138,-1.8339 0.683,-2.2064 2.2345,-2.4298 0.1212,-0.018 0.2385,-0.026 0.3519,-0.026 z m 68.4837,8.8129 c -1.1821,0 -2.6603,0.1848 -3.0805,0.6346 -1.194,2.523 -0.3292,3.9406 2.111,4.0964 2.4401,0.1557 3.15,-4.2986 2.3885,-4.579 -0.2617,-0.096 -0.7999,-0.1504 -1.419,-0.152 z m -48.3738,1.0113 c -0.7125,-0.029 -2.4879,2.199 -3.9822,4.3527 -1.7711,2.5527 -2.695,15.0276 -2.695,15.0276 0,0 -7.4814,-5.5068 -8.4925,-6.0095 -1.0112,-0.5029 -3.5855,-0.3509 -3.3873,2.0655 0.1985,2.4163 5.1631,7.6889 6.2941,8.4233 1.1309,0.7341 3.1589,1.445 4.175,0.8201 0.4254,-0.2616 1.6745,-0.5407 2.9802,-0.7798 -1.3289,0.6615 -2.4062,2.8261 -2.3229,3.2757 0,0 -0.3725,1.0181 0.5142,1.816 0.8866,0.7979 2.7368,0.9131 5.0498,-0.9602 2.3127,-1.8734 0.2956,-2.6482 -1.6319,-4.0359 -0.2036,-0.1466 -0.4095,-0.231 -0.6145,-0.2687 1.4475,-0.2396 2.7441,-0.4119 2.7441,-0.4119 0,0 2.5329,0.5818 4.3811,0.2992 1.8484,-0.2826 6.8238,-3.6058 8.0563,-4.5155 1.2325,-0.9096 1.7434,-3.0444 2.1896,-4.8266 0,0 -2.8174,-0.1186 -4.6235,-0.1596 -1.8062,-0.038 -8.1303,4.5666 -8.1303,4.5666 0,0 0.6471,-9.9685 0.7995,-10.7657 0.1521,-0.7974 -0.7031,-6.5298 -1.0258,-7.6502 -0.051,-0.175 -0.1461,-0.2577 -0.278,-0.2631 z m -51.3959,4.1414 c -0.8186,0 -1.3983,0.4041 -1.3983,0.4041 l 0.1907,5.1857 c 0.9345,0.6852 2.7856,1.1525 3.7548,-0.093 0.9692,-1.2459 1.021,-3.068 -0.6403,-4.6566 -0.6749,-0.645 -1.3467,-0.8385 -1.9069,-0.8402 z m 85.4542,0.9818 c -1.2247,0.023 -2.5595,1.4565 -2.6267,2.2717 -0.069,2.2583 1.4194,2.8969 3.1321,1.9312 1.7131,-0.9656 1.8171,-2.6632 0.4672,-3.8468 -0.2953,-0.2589 -0.6297,-0.3627 -0.9726,-0.3561 z m 18.5023,0.5463 c 0,0 -12.5268,6.6927 -14.44,7.7974 -1.9133,1.1046 -14.4764,10.1363 -16.6785,12.638 -2.2019,2.5016 -13.3207,16.0819 -15.1257,19.1358 -1.805,3.0539 -10.2883,24.1716 -10.2883,24.1716 l -6.6787,-13.5475 -9.4583,-13.8079 -9.819,-11.5011 -13.4654,-9.7467 -13.1041,-5.8803 -2.8158,6.8554 5.487,2.3715 14.5123,7.862 13.3211,14.0353 12.8514,27.2258 2.9601,28.5248 -0.2166,16.1794 10.7937,1.3968 -1.1188,-11.9879 1.4077,-19.9807 c 0,0 7.7253,-26.6084 8.9167,-29.9547 1.1912,-3.3464 13.3569,-19.6881 14.6203,-21.3775 1.2636,-1.6894 15.1262,-14.4901 15.1262,-14.4901 l 17.5447,-8.447 z m -91.7293,5.3991 c -0.629,0.01 -1.3329,0.272 -1.9446,0.6248 -1.3496,0.7788 -1.4533,1.1838 -0.5013,2.897 0,0 1.7476,1.3699 2.7859,1.3859 1.0384,0.015 1.7653,-1.6663 1.3152,-3.5352 -0.2462,-1.0221 -0.8961,-1.3829 -1.6552,-1.3725 z m 59.939,3.1456 c -0.9153,0.025 -2.2168,1.577 -2.2836,3.0706 0.1212,2.4607 2.371,2.2111 4.2054,0.6697 1.8343,-1.5419 -0.9172,-3.6598 -1.8345,-3.7378 h -0.087 z m -47.778,5.2425 c -0.059,0 -0.1179,0.01 -0.1747,0.024 -1.0381,0.2959 -2.0245,1.8372 -1.0728,2.943 0.5712,0.7164 3.6169,-0.6847 3.6169,-0.6847 0,0 -1.3451,-2.2823 -2.3694,-2.282 z m 33.7137,8.8274 c -0.6715,0.01 -1.3193,0.518 -1.7864,1.1488 -0.8308,1.1213 1.4359,3.2236 2.3879,3.9868 v 5e-4 c 1.2806,-0.6853 2.0246,-2.3204 0.9349,-4.0803 -0.477,-0.7702 -1.0141,-1.0637 -1.5364,-1.0558 z m 40.1567,0.3752 c 0,0 -1.0919,4.973 -2.0515,11.4499 -0.9597,6.4769 5.625,15.3959 7.23,16.1701 3.3583,-2.4716 3.5238,-9.9763 2.9115,-15.0983 -0.6122,-5.122 -8.09,-12.5217 -8.09,-12.5217 z m -63.3568,1.1637 c -0.5073,0 -0.9851,0.1117 -1.3085,0.2796 -0.8998,0.4673 -0.9518,1.76 -0.6232,3.1616 0,0 0.9173,1.6035 2.1286,1.6195 1.2115,0.015 2.7,-1.9001 2.0944,-3.5977 -0.3881,-1.0875 -1.3869,-1.4592 -2.2913,-1.463 z m -34.153,9.4134 c 0,0 -4.8481,6.0263 -5.7113,8.4258 -0.8636,2.3997 0.288,9.8714 2.5756,11.6712 3.6057,-2.6997 5.6968,-8.6306 5.6358,-11.712 -0.061,-3.0814 -2.5001,-8.385 -2.5001,-8.385 z m 46.6514,1.9322 c -1.129,0 -1.4856,0.9196 -1.9528,2.0629 0,0 0.8307,1.5109 1.5229,2.0872 0.6921,0.5762 1.6961,0.8407 3.1672,-0.6077 1.4708,-1.4485 -0.312,-3.0055 -2.0252,-3.4416 -0.2676,-0.068 -0.503,-0.1004 -0.7121,-0.1008 z m 31.6332,0.2212 c -0.9927,1.0571 -0.347,3.767 0.4967,6.3727 0.8438,2.6052 7.4282,12.2242 11.1011,14.8001 3.673,2.5759 3.0939,-0.4469 3.1269,-2.6505 0.033,-2.2037 -3.6395,-10.3927 -5.3934,-12.4772 -1.7536,-2.0845 -9.3313,-6.0451 -9.3313,-6.0451 z m -60.727,6.6445 c -1.9963,-0.026 -6.4678,5.2521 -9.1948,8.2176 -2.9088,3.1631 -5.166,7.5265 -4.9387,9.4625 -0.8937,3.3541 6.3176,0.3679 11.8019,-6.1221 5.484,-6.49 4.4537,-10.6619 2.6964,-11.4799 -0.1098,-0.051 -0.2317,-0.076 -0.3648,-0.078 z m 87.9776,14.3805 c -0.518,0.01 -1.0134,0.1396 -1.4583,0.4155 -2.5884,1.6052 -2.9802,10.7074 -2.9802,10.7074 l -3.3063,-2.5637 c 0,0 -6.1557,-0.7831 -7.1561,1.6247 -1.0007,2.4078 6.5903,9.709 6.5903,9.709 0,0 -1.6309,1.5859 -3.9584,2.7605 -2.3273,1.1745 -3.3498,4.6586 -3.0019,6.44 0.3479,1.7819 8.5269,1.0576 11.05,0.02 0,0 10.5277,-19.2238 10.0924,-23.119 -0.3603,-3.226 -3.3756,-6.0355 -5.8715,-5.9945 z m -35.9539,0.6574 c -2.6467,0.015 -4.651,0.9391 -5.4586,1.4407 -4.5829,0.938 3.375,6.0004 7.6104,7.5489 4.2355,1.5485 12.2763,0.8635 12.2763,0.8635 0,0 -5.9396,-7.6083 -10.4728,-9.1865 -1.4166,-0.4932 -2.7522,-0.6737 -3.9553,-0.6666 z m -42.8982,2.0918 c -2.3604,0.022 -6.4045,1.2532 -8.7457,2.0226 -3.4845,1.1453 -7.5445,3.9814 -8.5597,6.1356 -2.6815,4.1858 8.7872,2.3043 13.2261,0.709 4.4389,-1.5952 5.8021,-5.522 5.9387,-7.8398 0.045,-0.7605 -0.7066,-1.0382 -1.8594,-1.0274 z m -31.3593,6.672 c -1.0137,-0.014 -4.1839,1.2829 -5.1831,1.8334 0.1244,10.4829 3.7517,17.0812 13.1087,24.8476 0,0 6.3953,-1.566 6.4823,-4.2478 0.087,-2.6819 -5.8296,-6.088 -5.8296,-6.088 0,0 4.0236,-2.9165 3.9806,-5.6766 -0.043,-2.7603 -8.9834,-2.7213 -8.9834,-2.7213 0,0 -0.065,-4.7764 -0.957,-6.5578 -0.4738,-0.9464 -1.4696,-1.3735 -2.6185,-1.3895 z m 77.7994,9.7405 c -3.4084,0.03 -13.1697,0.5805 -13.4178,2.2184 1.6213,3.6032 10.3241,6.9535 14.394,6.3728 4.07,-0.5807 7.8419,-4.5264 7.8419,-4.5264 0,0 -5.41,-4.0948 -8.8181,-4.0648 z m -47.5216,2.9357 c -4.009,0.011 -10.2237,1.6078 -12.0877,3.5626 0,0 5.6057,3.2447 13.3015,3.422 7.6962,0.1772 7.9389,-2.2495 7.8177,-3.2448 -0.1211,-0.9953 -4.6663,-3.6407 -8.6507,-3.7357 h -0.3808 z m 56.628,12.9026 c -3.4231,0.046 -10.9587,2.9074 -11.8861,3.4881 0,0 -8.2556,5.9109 -7.445,9.0377 0.8107,3.1268 13.7317,-2.8437 16.6104,-4.8984 2.8789,-2.0548 5.4767,-5.2707 4.302,-7.1468 -0.2202,-0.3518 -0.7913,-0.4912 -1.5813,-0.4806 z m -61.8422,2.3657 c -1.5296,0.018 -3.0987,0.3968 -4.8741,1.0423 -1.1816,2.3451 4.015,6.081 6.7572,7.3081 2.7421,1.2271 7.014,2.5223 10.7409,1.9224 3.7266,-0.5999 -3.8024,-6.8445 -7.3323,-8.8078 -1.8753,-1.0431 -3.5581,-1.4856 -5.2917,-1.465 z" fill="#fff" paint-order="fill markers stroke" transform="translate(-227.90166,61.9688) translate(-8525.6049,-1949.6676)"/>
    <path d="m 8822.1465,1887.6988 c -10.3306,0 -13.4155,1.0843 -25.8491,9.0857 -8.2052,5.2803 -14.6319,13.3618 -23.9432,30.1078 -9.1994,16.5441 -14.6527,31.6629 -16.9494,46.9909 -1.3171,8.7901 -2.2306,23.9064 -1.7833,29.5072 1.1231,14.0628 6.0243,28.6192 12.8999,38.3129 8.2474,11.6279 27.076,22.8958 41.3727,24.7592 1.9774,0.2577 6.9137,0.5016 10.9688,0.5426 28.63,0.2877 51.4287,-14.0417 64.4943,-40.5349 5.3296,-10.807 7.5314,-19.3776 8.2563,-32.1366 0.7532,-13.2551 -3.2246,-30.8163 -12.2669,-54.1522 -10.0284,-25.8815 -19.7049,-38.4902 -36.5973,-47.6881 -6.6643,-3.6287 -11.674,-4.7945 -20.6028,-4.7945 z m -1.2475,9.3637 c 3.5042,-0.037 6.6585,0.12 6.6585,0.5023 0,0.6395 -3.0153,2.0792 -6.135,2.9291 -3.1772,0.8656 -7.0824,0.7324 -10.1301,-0.3452 -2.8212,-0.9974 -2.6735,-1.4189 0.849,-2.419 1.3991,-0.3972 5.2534,-0.6296 8.7576,-0.6672 z m 11.0887,1.3193 c 0.3839,8e-4 0.8307,0.1279 1.4676,0.3499 2.7986,0.9756 8.6032,4.3288 12.6489,7.307 l 3.5662,2.6257 -1.0858,2.1296 c -1.1255,2.2077 -1.0175,3.3538 0.4796,5.0969 0.9695,1.1289 3.6724,1.3476 5.3775,0.4351 0.9048,-0.4842 1.3627,-0.2405 2.6024,1.3849 l 1.5043,1.9725 -1.5731,3.0318 c -1.7982,3.4664 -2.5219,8.8801 -1.372,10.2656 0.4005,0.4826 1.4902,0.8774 2.4216,0.8774 1.3431,0 2.0772,-0.5443 3.5486,-2.6318 1.0204,-1.4476 2.0627,-2.4246 2.3162,-2.171 0.3932,0.3932 5.1536,11.12 5.1536,11.6128 0,0.095 -0.7378,0.025 -1.6396,-0.1556 -2.9436,-0.5888 -4.229,2.8302 -2.218,5.8994 1.1047,1.686 2.9818,1.9002 4.8958,0.5596 0.7142,-0.5003 1.2987,-0.6543 1.2987,-0.3426 0,0.3118 -2.0205,1.5656 -4.4902,2.7859 -8.732,4.3145 -20.8679,13.305 -28.0179,20.7564 -6.9067,7.198 -13.059,16.5588 -17.694,26.9218 -1.3976,3.1247 -3.0031,7.3317 -3.5673,9.3488 -1.0126,3.6201 -1.0342,3.6462 -1.6857,1.9932 -4.4932,-11.3998 -7.6967,-16.8961 -15.5473,-26.6764 -5.9125,-7.3659 -11.9658,-13.1442 -17.3736,-16.5845 -2.8618,-1.8206 -13.7089,-7.4011 -15.6311,-8.0419 -0.4322,-0.144 -0.4226,-0.7707 0.032,-2.0748 0.5711,-1.6379 0.8527,-1.8284 2.2841,-1.5421 0.8981,0.1796 2.1907,0.028 2.8727,-0.3369 1.809,-0.9682 1.6976,-4.3445 -0.2015,-6.1045 l -1.4413,-1.3359 1.1917,-3.1357 c 2.1121,-5.5585 2.0671,-5.5174 4.1434,-3.7703 1.2698,1.0685 2.3371,1.4632 3.6184,1.3384 1.7772,-0.1731 1.8172,-0.2426 1.7962,-3.1729 -0.016,-2.2901 -0.4118,-3.5872 -1.68,-5.5036 l -1.6593,-2.5068 1.5281,-3.1156 c 1.4454,-2.947 1.6474,-3.115 3.7414,-3.115 4.2507,0 5.8498,-2.4428 3.8333,-5.8565 l -0.9777,-1.6547 3.4608,-4.2354 c 4.2454,-5.1955 8.8755,-8.9215 13.0235,-10.481 l 3.1357,-1.1793 2.7073,1.7214 c 1.489,0.9464 3.891,2.034 5.3372,2.4169 4.9302,1.3055 12.3383,-0.5198 15.8822,-3.9135 0.8814,-0.844 1.3466,-1.1938 1.9864,-1.1927 z m 2.8898,2.542 c -0.063,0 -0.1214,-10e-4 -0.1773,0.01 -0.2682,0.037 -0.4691,0.2015 -0.6986,0.478 -0.5525,0.6668 -0.5508,1.3332 0.01,3.066 1.1058,3.4182 2.7813,6.4709 3.9134,7.1308 1.3117,0.7642 1.728,0.7677 3.1094,0.029 0.8199,-0.4388 1.1302,-1.2283 1.1302,-2.8764 0,-2.7008 -1.674,-4.9534 -5.1186,-6.8879 -1.1065,-0.6214 -1.7302,-0.9219 -2.1683,-0.9457 z m -29.8644,2.0448 c -0.7945,0.043 -2.1241,0.72 -4.0354,1.9886 -5.5947,3.7136 -7.6517,7.9099 -4.842,9.8779 1.5393,1.0782 2.0835,1.1013 3.7646,0.1587 1.8414,-1.0326 3.4858,-3.3344 4.8441,-6.7805 1.4312,-3.6309 1.5931,-5.3168 0.2687,-5.2447 z m 31.1868,1.6744 c 0.2766,0 1.0984,0.6339 1.8262,1.4087 0.7278,0.7747 1.2339,1.8552 1.1245,2.4014 -0.1822,0.9095 -0.2785,0.902 -1.1462,-0.094 -1.3438,-1.5417 -2.3998,-3.7165 -1.8045,-3.7165 z m -8.8656,0.032 c -0.7022,-0.037 -0.9452,1.0661 -0.9452,3.3864 0,3.9588 0.8347,6.8435 2.5197,8.7059 1.4196,1.569 2.0081,1.6284 3.4236,0.3473 2.0704,-1.8736 1.0025,-6.4195 -2.4246,-10.3229 -1.2033,-1.3704 -2.0274,-2.0882 -2.5735,-2.1167 z m -15.2926,1.3777 c -1.2555,0.011 -2.6362,1.7507 -4.6514,5.779 -2.159,4.3157 -2.4934,5.9682 -1.3054,6.4476 2.8446,1.1478 5.2776,-0.7615 6.6094,-5.1867 1.1355,-3.773 1.0882,-6.4767 -0.1209,-6.9407 -0.1757,-0.067 -0.3524,-0.1007 -0.5317,-0.099 z m 7.3871,0.2594 c -0.2611,0.045 -0.4082,0.7252 -1.1379,1.8423 -2.2715,3.7352 -3.363,11.8843 -1.8381,13.7216 1.1245,1.355 3.3555,1.0734 4.4245,-0.5581 1.9368,-2.9559 1.7537,-11.3234 -0.3033,-13.8637 -0.6699,-0.8273 -0.9421,-1.177 -1.1452,-1.1421 z m -17.2889,0.2879 c 0.06,-0.01 0.1071,-4e-4 0.1375,0.03 0.1836,0.1836 -0.4396,1.585 -1.3849,3.114 -1.6908,2.7348 -3.7182,3.9977 -3.7182,2.3162 0,-0.9402 4.0581,-5.3171 4.9656,-5.4601 z m 26.2636,2.7171 c 0.5878,0 2.6577,3.7503 2.6577,4.8209 0,1.5587 -0.9493,1.2193 -1.6408,-0.5845 -0.9833,-2.564 -1.3841,-4.2364 -1.0169,-4.2364 z m 22.5738,1.2712 c 0.2494,0.034 0.5699,0.2752 1.0852,0.7416 1.4389,1.3022 1.5459,2.4056 0.2801,2.8913 -1.1767,0.4516 -1.0607,0.4732 -1.88,-0.3462 -0.8347,-0.8347 -0.8755,-1.6242 -0.1437,-2.7813 0.231,-0.3651 0.4089,-0.5392 0.6584,-0.5054 z m -40.643,0.1892 c 0.3181,-0.1099 0.2034,0.906 -0.5618,2.9094 -0.555,1.4533 -1.2503,2.6422 -1.5451,2.6422 -0.7203,0 -0.7122,-0.037 0.6816,-3.1879 0.6688,-1.5117 1.1778,-2.2783 1.4253,-2.3637 z m 9.1756,0.8304 c 0.6043,-0.024 1.0863,4.7911 0.5612,6.7283 -0.2557,0.9432 -0.8196,1.8328 -1.2526,1.9771 -0.6343,0.2114 -0.708,-0.5093 -0.3798,-3.7129 0.224,-2.1865 0.6206,-4.3561 0.8811,-4.8214 0.064,-0.1147 0.1276,-0.1686 0.1901,-0.1711 z m -34.1617,6.2849 c 0.6519,-0.01 0.8934,0.7421 0.1189,1.6754 -0.764,0.9206 -2.3162,1.1598 -2.3162,0.357 0,-0.2715 0.4997,-0.9458 1.1105,-1.4986 0.4091,-0.3702 0.7905,-0.5303 1.0868,-0.5338 z m 51.9405,0.1969 c -1.2254,-0.044 -2.6565,0.4613 -3.622,1.4268 -1.1392,1.1392 -1.434,2.0332 -1.434,4.3475 0,1.6025 -0.2632,3.0763 -0.5845,3.2747 -0.8665,0.5355 -0.7077,1.4609 0.2506,1.4609 1.499,0 2.6712,-1.7816 2.6712,-4.0602 0,-2.0954 1.3222,-4.1612 2.1399,-3.3434 0.1973,0.1973 0.093,1.7021 -0.2315,3.3439 -0.5071,2.5649 -0.4572,3.0355 0.3571,3.3435 0.5213,0.1972 1.2956,0.7022 1.7203,1.1219 1.2303,1.2159 2.6797,0.8958 4.4866,-0.9901 0.9235,-0.9641 2.0244,-1.7529 2.4463,-1.7529 1.1811,0 0.9082,2.2204 -0.356,2.897 -2.0655,1.1054 -3.0564,2.4259 -2.4076,3.2076 0.33,0.3972 0.4374,0.8844 0.2397,1.0821 -0.1977,0.1977 0.5984,0.8158 1.7689,1.374 1.1706,0.5582 2.0371,1.2926 1.926,1.632 -0.3046,0.9302 -3.2276,1.0913 -5.1738,0.2852 -2.3238,-0.9626 -2.96,-0.2023 -2.1839,2.6087 0.7132,2.5829 0.3352,4.751 -0.9121,5.2296 -1.2374,0.4748 -2.6515,-1.1753 -2.6515,-3.0944 0,-3.4241 -2.5909,-3.5154 -5.6994,-0.2005 -2.3425,2.4981 -3.5221,-0.1013 -1.3177,-2.9037 0.8291,-1.054 1.1164,-2.183 0.9994,-3.9295 -0.1565,-2.3383 -0.3097,-2.5213 -3.3543,-4.0044 -3.3348,-1.6245 -4.3529,-3.2445 -2.4242,-3.8566 1.4985,-0.4756 4.0618,0.5503 5.4085,2.1642 l 1.0904,1.3069 0.019,-1.3534 c 0.032,-2.2113 -1.0302,-3.5309 -3.4179,-4.2462 -2.4865,-0.745 -4.9538,0.027 -6.1273,1.9167 -1.4227,2.2913 1.6083,6.0274 5.5428,6.8321 2.5166,0.5147 2.7968,1.8976 0.8527,4.208 -3.9537,4.6987 0.074,10.1669 4.4209,6.0022 l 1.6076,-1.5404 0.4036,1.6862 c 0.4967,2.0743 1.301,3.1326 2.8521,3.7542 h 5e-4 c 1.6762,0.6717 3.3029,0.1293 4.9036,-1.636 1.1071,-1.2206 1.3178,-1.962 1.0748,-3.7734 -0.2679,-1.9972 -0.1785,-2.2153 0.785,-1.9095 0.598,0.1898 2.1639,0.055 3.4794,-0.2992 3.0909,-0.8323 4.1308,-2.7615 2.6809,-4.9744 -0.5463,-0.8338 -1.5143,-1.7092 -2.1507,-1.9446 -1.1111,-0.4108 -1.0985,-0.4781 0.3111,-1.7037 4.3645,-3.7949 0.9402,-9.5912 -4.0716,-6.8921 -1.0386,0.5593 -2.1763,1.6495 -2.5286,2.4226 -0.6014,1.3199 -1.8052,1.8246 -2.5574,1.0723 -0.1834,-0.1834 0.034,-1.038 0.4832,-1.8991 1.0025,-1.9216 1.075,-6.0475 0.1229,-6.9996 -0.4421,-0.4422 -1.1034,-0.6668 -1.8386,-0.6935 z m -42.0889,3.037 c -0.9045,-0.025 -1.7381,0.1611 -2.3534,0.6217 -1.3701,1.0259 -1.3943,3.848 -0.05,5.8994 l 0.9612,1.4671 -2.4924,0.6712 c -3.0366,0.8177 -6.3613,3.9569 -6.3613,6.0069 0,1.8645 3.0262,4.4928 5.1733,4.4928 0.8679,0 2.1625,-0.4093 2.8768,-0.9096 1.7599,-1.2327 1.6484,-0.2068 -0.1627,1.4945 -1.2911,1.2129 -2.6152,4.3427 -2.6252,6.2017 0,0.3584 0.5416,1.3443 1.2077,2.1911 h -5e-4 c 2.0848,2.6504 6.139,1.9179 7.8656,-1.4211 l 0.909,-1.7575 1.5131,1.1906 c 2.0172,1.5868 4.0186,1.502 5.7645,-0.2439 1.6297,-1.6296 1.6858,-2.1002 0.6088,-5.1175 l -0.7747,-2.1694 2.5373,0.3478 c 3.2471,0.445 5.2172,-0.7709 6.0322,-3.7223 0.4731,-1.7136 0.4149,-2.4559 -0.2764,-3.5109 -0.7413,-1.1314 -1.3833,-1.3384 -4.1559,-1.3384 h -3.2788 l 1.4944,-1.1756 c 1.9534,-1.5366 2.4999,-4.0856 1.3514,-6.3066 -1.6654,-3.2204 -4.328,-3.2858 -7.4316,-0.1824 -1.2476,1.2477 -2.2681,1.9197 -2.2681,1.4934 0,-2.1714 -3.3507,-4.1477 -6.0642,-4.223 z m 64.2255,0.6005 c 0.2201,0.078 0.8289,0.7585 1.4666,1.6542 1.3033,1.8303 1.308,1.8932 0.2718,3.8173 -0.5795,1.076 -1.5362,2.3933 -2.1259,2.9269 -0.9595,0.8682 -1.1087,0.8744 -1.4217,0.059 -0.3025,-0.7884 1.1543,-7.8681 1.7395,-8.4533 0.014,-0.014 0.038,-0.015 0.07,0 z m -63.4385,2.1973 c 1.2029,0.047 2.4741,1.0297 2.743,2.374 0.1934,0.9669 0.8665,2.0339 1.496,2.3709 0.9708,0.5195 1.5343,0.2057 3.7109,-2.066 2.8564,-2.9811 3.4398,-3.1903 4.3186,-1.5482 0.8554,1.5984 0.8425,1.63 -1.5864,3.8886 -2.1687,2.0165 -2.9608,1.5234 -0.5514,3.4758 1.0013,0.8786 2.3657,1.4374 3.5057,1.4474 2.3949,0.012 3.4651,0.7044 2.9921,1.9369 -0.2913,0.7593 -1.1411,0.9761 -3.8303,0.9761 -3.119,0 -3.5206,0.1423 -4.1212,1.4604 -0.5105,1.1204 -0.4841,2.0085 0.1122,3.8153 0.5731,1.7366 0.6055,2.5266 0.1235,3.0086 -0.9099,0.91 -3.6355,-0.9306 -3.6355,-2.4552 0,-0.6353 -0.2625,-1.1549 -0.5839,-1.1549 -0.3214,0 -0.5845,0.263 -0.5845,0.5844 0,0.3214 -0.3685,0.584 -0.8191,0.584 -0.4506,0 -1.1112,0.8378 -1.4681,1.8613 -0.3568,1.0236 -1.0809,2.3381 -1.6087,2.9213 -1.1592,1.281 -2.1488,1.3492 -3.0923,0.2124 -0.869,-1.0472 -0.38,-2.8342 1.5632,-5.7082 1.0577,-1.5653 1.3646,-2.5948 1.093,-3.6768 -0.4975,-1.9825 -1.6845,-2.3596 -4.5,-1.4304 -2.022,0.6673 -2.4377,0.6443 -3.2603,-0.1782 -0.8675,-0.8676 -0.8658,-1.0601 0.019,-2.4107 0.8313,-1.2687 1.4575,-1.4913 4.6183,-1.6418 3.5345,-0.1683 3.6633,-0.2294 3.8468,-1.8325 0.1044,-0.9121 -0.1934,-2.0955 -0.6615,-2.6292 -1.2192,-1.3906 -1.7325,-3.4334 -0.9798,-3.8985 0.3461,-0.2139 0.7396,-0.3024 1.1405,-0.2868 z m 39.348,5.2637 c -1.053,-0.064 -2.173,0.4067 -3.0608,1.5353 -1.5284,1.9435 -1.5439,3.9701 -0.042,5.4721 0.6427,0.6425 1.776,1.1684 2.5187,1.1684 1.8821,0 3.9083,-2.0646 3.9083,-3.9827 0,-2.4971 -1.5694,-4.0868 -3.3244,-4.1931 z m -58.1163,2.0402 1.2004,2.6298 c 0.6603,1.4461 1.2034,2.9578 1.2134,3.3595 0.02,1.1697 -0.8183,0.8546 -2.558,-0.9612 -1.5445,-1.6121 -1.5793,-1.7705 -0.7385,-3.36 z m 23.4559,0.2925 c -1.9567,0 -2.4348,0.2581 -3.191,1.7203 -1.0931,2.114 -0.3829,4.4809 1.5813,5.27 1.9414,0.78 2.1178,0.7404 3.6866,-0.8284 1.532,-1.532 1.8077,-3.204 0.8294,-5.0317 -0.4408,-0.8238 -1.2288,-1.1302 -2.9063,-1.1302 z m 34.1871,0.2925 c 0.3214,0 0.6684,0.5915 0.771,1.3146 0.1285,0.9046 -0.112,1.3147 -0.771,1.3147 -0.659,0 -0.8996,-0.4101 -0.7711,-1.3147 0.1027,-0.7231 0.4498,-1.3146 0.7711,-1.3146 z m -34.7478,1.4604 c 0.6528,0 1.3465,0.415 1.541,0.9219 0.4159,1.0839 -0.9441,2.5635 -1.9973,2.173 -0.4018,-0.1489 -0.7302,-0.9059 -0.7302,-1.6826 0,-1.0298 0.3209,-1.4123 1.1865,-1.4123 z m 19.5668,7.0057 c -0.4588,0.011 -0.9646,0.4942 -1.9374,1.51 -2.4904,2.6005 -3.7872,6.3664 -4.24,12.3166 l -0.4145,5.4508 -1.541,-1.4738 c -0.8476,-0.8107 -3.0225,-2.1516 -4.8327,-2.9796 -5.6262,-2.573 -7.9246,-0.4333 -5.223,4.8622 1.4525,2.8471 5.1529,6.1779 7.8538,7.0693 1.7954,0.5925 2.1213,0.9625 2.1213,2.4076 0,2.4216 1.9643,3.9638 4.1527,4.0644 1.313,0.06 2.7065,-0.3985 3.805,-1.4971 1.1544,-1.1544 1.437,-1.9524 1.2908,-3.6494 l -0.1875,-2.1719 2.1761,0.187 c 4.4404,0.3826 12.0077,-5.9044 12.3113,-10.2283 0.1157,-1.6466 0.11,-1.6491 -3.2897,-1.5317 -2.4416,0.084 -4.1251,0.539 -5.9469,1.6066 -1.3977,0.8191 -2.6644,1.4894 -2.8143,1.4894 -0.15,0 -0.043,-0.9859 0.2362,-2.1911 1.1937,-5.1406 0.2254,-11.608 -2.1276,-14.2079 -0.6195,-0.6847 -0.9878,-1.0427 -1.3926,-1.0331 z m 48.2125,1.7586 c 1.4709,0 2.1101,1.4731 1.1441,2.637 -1.2583,1.5162 -2.3311,0.9303 -2.3311,-1.2733 0,-0.9809 0.333,-1.3637 1.187,-1.3637 z m -47.6012,3.7347 c 0.2282,0.026 0.4708,1.0461 0.771,2.8819 0.4783,2.925 -0.5498,10.3802 -1.7182,12.4598 -0.2555,0.4546 -0.4344,0.7444 -0.5493,0.7865 -0.2526,0.093 -0.1941,-1.0122 0.044,-4.1894 0.6331,-8.4192 1.0165,-11.989 1.4521,-11.9388 z m -2.1673,0.4526 c 0.1965,0.021 0.2443,0.4241 0.1049,1.0656 -0.2561,1.1771 -0.8315,10.7127 -0.9105,15.0947 -0.013,0.7251 -0.066,1.044 -0.213,1.0113 -0.088,-0.02 -0.2111,-0.1658 -0.3798,-0.4268 -0.7653,-1.1838 -0.735,-9.7582 0.047,-13.4049 0.3474,-1.6198 0.8839,-3.1008 1.1921,-3.2913 0.061,-0.038 0.1138,-0.053 0.1592,-0.049 z m 37.1047,0.1137 c -0.2346,-0.01 -0.4689,0.012 -0.6981,0.068 -3.603,0.8789 -4.9936,4.7773 -2.4412,6.8441 0.7185,0.5818 1.692,1.0578 2.1631,1.0578 1.2821,0 4.2726,-3.24 4.2726,-4.6292 0,-1.7058 -1.6543,-3.2746 -3.2964,-3.3404 z m -85.0424,1.4992 c 0.4975,-0.084 1.8625,1.8895 1.8625,2.7838 0,0.4347 -0.6577,0.7648 -1.524,0.7648 -1.3706,0 -1.4836,-0.1617 -1.1213,-1.6056 0.2217,-0.8831 0.5346,-1.7373 0.6955,-1.8981 0.025,-0.025 0.054,-0.039 0.087,-0.045 z m 84.597,0.7229 c 0.7006,0.056 1.3224,0.607 1.0573,1.2981 -0.1801,0.4693 -0.7116,1.0007 -1.1809,1.1808 -1.0532,0.4042 -1.7806,-1.2518 -0.9255,-2.1068 0.2137,-0.2138 0.4771,-0.3288 0.7462,-0.3643 0.101,-0.013 0.2028,-0.016 0.3029,-0.01 z m 17.4836,1.941 c 0.4184,0.032 0.6694,0.4867 1.1416,1.5859 0.7371,1.716 0.7231,2.0088 -0.1277,2.6588 -0.5258,0.4017 -1.1115,0.7302 -1.3022,0.7302 -0.4265,0 -2.5446,-3.5196 -2.2624,-3.7595 0.1116,-0.095 0.8019,-0.4841 1.5337,-0.8651 0.4552,-0.2368 0.7661,-0.3696 1.017,-0.3503 z m -90.0053,1.5198 c -0.1077,0 -0.2191,0 -0.3349,0.01 -0.5559,0.041 -1.2164,0.2336 -2.0862,0.5643 -2.9283,1.1133 -3.3583,3.2815 -1.0991,5.5407 1.6659,1.6658 2.6459,1.7715 5.0224,0.5426 2.0945,-1.0832 2.3598,-3.7307 0.555,-5.5355 -0.7261,-0.7263 -1.3035,-1.0859 -2.0572,-1.1183 z m 86.0009,0.7493 c 0.055,0 0.099,0.017 0.1323,0.037 0.9153,0.5657 1.3125,3.3286 0.6015,4.1853 -1.0067,1.213 -2.6852,0.9974 -3.7186,-0.478 -0.5003,-0.7142 -0.9095,-1.4462 -0.9095,-1.6268 0,-0.5614 3.0751,-2.1857 3.8943,-2.1177 z m -86.912,1.5937 c 0.7727,0.048 1.5484,0.5306 1.6898,1.265 0.144,0.7474 -0.1924,1.016 -1.2733,1.016 -1.6664,0 -2.5447,-0.9801 -1.666,-1.8588 0.3235,-0.3236 0.7859,-0.451 1.2495,-0.4222 z m 60.8191,0.6289 c -0.6222,0.018 -1.2935,0.6037 -2.6237,1.8955 -2.3856,2.3168 -2.5455,3.3448 -0.7767,4.9924 1.6229,1.5123 3.6503,1.5211 5.1486,0.023 1.8025,-1.8026 1.7597,-4.406 -0.098,-5.9888 -0.7121,-0.6067 -1.1661,-0.936 -1.65,-0.9219 z m 19.8013,1.0092 0.9064,1.7529 c 0.4986,0.9642 0.9064,1.888 0.9064,2.0531 0,0.165 -0.9813,0.9673 -2.1807,1.7823 -1.1994,0.815 -2.3332,1.4816 -2.5198,1.4816 -0.1866,0 -1.0386,-0.7299 -1.8934,-1.6221 -1.4191,-1.4813 -1.4669,-1.6748 -0.5477,-2.2252 0.5537,-0.3315 1.9791,-1.1922 3.1677,-1.9126 z m -28.9481,0.9132 c 0.041,0 0.063,0.019 0.063,0.056 0,1.245 -4.4524,5.5781 -7.1226,6.9313 -1.6779,0.8502 -2.7842,1.2527 -3.2334,1.2475 -0.5776,-0.01 -0.069,-0.6879 1.7058,-1.9591 1.3836,-0.9908 3.8961,-2.9146 5.5832,-4.2751 1.4763,-1.1904 2.7172,-2.0092 3.0044,-2.0004 z m -27.5792,0.3353 c 0.3287,0 1.2602,0.4502 2.8092,1.3638 2.4792,1.462 5.8422,4.8429 5.3283,5.3568 -0.024,0.024 -0.066,0.032 -0.124,0.025 -0.8722,-0.097 -5.4049,-3.4322 -7.2053,-5.3563 v -5e-4 c -0.8628,-0.9219 -1.1369,-1.3849 -0.8082,-1.3891 z m 23.5226,0.4744 c 1.0064,-0.017 0.7461,0.2289 -3.3305,3.1476 -1.4756,1.0565 -2.7164,1.7283 -3.0045,1.649 h -5e-4 c -0.041,-0.011 -0.062,-0.038 -0.062,-0.081 0,-0.3456 1.2485,-1.5451 2.775,-2.6649 1.5265,-1.1198 3.157,-2.0406 3.623,-2.0506 z m 12.1342,0.1148 c 0.5447,-0.046 1.0645,0.3389 1.0645,1.1079 0,0.6238 -0.2098,1.2637 -0.4661,1.4221 -0.8326,0.5146 -2.0515,-0.6592 -1.6826,-1.6205 0.2216,-0.5777 0.6605,-0.874 1.0842,-0.9095 z m 34.1204,0.2744 c 0.1259,-0.01 0.2159,0.017 0.2666,0.068 0.6871,0.6871 4.3903,14.2401 5.5242,20.2174 1.3941,7.3492 1.6835,13.6975 0.9224,20.2443 -0.9022,7.7613 -1.0228,8.0569 -2.513,6.1624 -3.7818,-4.8078 -8.6253,-1.3596 -8.6253,6.1407 v 2.9207 l -1.8991,-1.1033 c -1.0445,-0.6066 -2.9035,-1.2565 -4.1315,-1.4443 -1.9278,-0.2949 -2.4663,-0.1078 -3.944,1.3699 -2.6672,2.6672 -2.3957,5.2382 0.9023,8.5359 1.4376,1.4377 2.883,2.6144 3.2117,2.6144 0.3288,0 -0.6936,1.2485 -2.2722,2.775 -5.0744,4.9068 -4.5692,9.8327 0.9632,9.3927 1.3724,-0.1091 2.495,0.035 2.495,0.3194 0,0.2847 -2.1691,2.6834 -4.8204,5.3309 -8.7337,8.7212 -18.3554,13.7099 -30.8219,15.9804 -5.3378,0.9722 -8.6977,1.2562 -9.0036,0.7612 -0.3436,-0.556 1.1432,-21.1416 2.0107,-27.8402 0.7627,-5.8894 2.1461,-13.0744 3.3192,-17.2371 1.4767,-5.2403 8.0798,-19.5757 11.097,-24.0916 3.7439,-5.6034 11.981,-14.148 19.2402,-19.9585 6.2319,-4.9882 16.1894,-11.0842 18.0785,-11.1579 z m -108.5888,0.8676 c 0.552,0 4.2478,2.4203 4.2478,2.7817 0,0.192 -0.3153,1.2225 -0.7012,2.2898 -0.3973,1.0986 -1.0947,1.9243 -1.6071,1.9033 -1.842,-0.075 -3.5347,-1.1261 -3.5347,-2.1942 0,-1.32 1.1547,-4.7806 1.5952,-4.7806 z m 37.9063,0.8511 c 0.2466,-0.011 1.3658,0.6813 2.5972,1.6159 1.3135,0.9969 3.1399,2.3567 4.0592,3.0216 0.9598,0.6941 1.4132,1.3681 1.065,1.5833 -0.1187,0.073 -0.2763,0.1043 -0.465,0.098 v 5e-4 c -1.3205,-0.044 -4.1605,-1.9236 -5.8183,-3.9718 -0.9469,-1.1699 -1.6107,-2.2207 -1.4753,-2.3353 0.01,-0.01 0.021,-0.011 0.037,-0.012 z m -10.3772,0.3344 c -0.4081,0.038 -0.8428,0.4274 -1.9053,1.1219 -2.5531,1.5885 -2.745,2.0047 -0.1075,4.842 1.2002,0.8013 3.2677,0.4514 4.4767,-0.7575 1.4991,-1.4991 1.2921,-2.7175 -0.7172,-4.2163 -0.9568,-0.7137 -1.3385,-1.0279 -1.7467,-0.9901 z m 59.5545,1.1565 1.4645,1.9198 1.4645,1.9203 -2.2339,1.8753 c -1.2287,1.0316 -2.4489,1.8672 -2.7115,1.8572 -0.2627,-0.01 -1.1938,-0.6485 -2.0691,-1.419 l -1.5911,-1.4009 2.838,-2.3766 z m -59.6465,1.2542 c 0.264,0 0.5251,0.052 0.7395,0.185 0.3368,0.2081 0.6119,0.6257 0.6119,0.9281 v 5e-4 c 0,0.7365 -2.1723,0.7043 -2.6319,-0.039 -0.3308,-0.5351 0.4886,-1.0659 1.2805,-1.0743 z m -20.963,0.5017 c 0.7902,0.073 5.3697,2.4339 5.3697,2.8112 0,0.1178 -0.5436,0.9782 -1.2082,1.9116 -1.4051,1.973 -1.482,1.987 -3.6453,0.6588 -1.4487,-0.8895 -1.5964,-1.2457 -1.263,-3.052 0.2077,-1.1248 0.4963,-2.1651 0.6413,-2.312 0.017,-0.017 0.053,-0.022 0.1055,-0.018 z m -8.8321,3.5761 c 0.8009,0.028 5.3748,2.5402 11.5993,6.3846 7.6193,4.7058 11.8752,8.9441 17.4605,17.3875 10.9708,16.585 17.5529,40.3116 16.4817,59.413 -0.1982,3.535 -0.3659,6.8877 -0.3659,7.4501 v 0 c -0.01,1.2508 -0.386,1.2411 -5.6606,-0.1415 -7.7278,-2.0256 -18.2966,-7.8094 -25.0202,-13.6922 -2.2919,-2.0048 -2.3077,-2.0446 -0.8093,-2.0666 2.3143,-0.033 4.607,-2.1149 4.607,-4.1827 0,-2.0813 -2.2066,-4.3539 -4.7749,-4.918 l -1.7606,-0.3866 1.8464,-1.5487 c 1.3372,-1.1214 1.9283,-2.193 2.1435,-3.8855 0.4558,-3.5849 -0.6016,-4.5592 -5.272,-4.8566 l -3.8685,-0.2465 v -2.4148 c 0,-4.6335 -3.408,-7.8277 -6.7293,-6.3144 -1.6204,0.7383 -1.6723,0.6349 -2.5906,-5.1578 -1.1784,-7.4341 -0.5176,-22.7058 1.5173,-35.0578 0.5029,-3.0529 0.9933,-5.6348 1.0893,-5.7376 0.019,-0.021 0.056,-0.03 0.1095,-0.028 z m 15.7464,0.5064 c 0.7258,0 4.881,3.1819 4.87,3.7295 -0.01,0.359 -0.4675,1.2227 -1.0227,1.9197 l -1.0093,1.2677 -1.9265,-1.3431 c -1.0595,-0.7389 -2.0807,-1.4983 -2.2696,-1.6872 -0.338,-0.338 0.902,-3.8866 1.3581,-3.8866 z m 65.4497,0.5121 1.94,1.8123 1.9399,1.8123 -1.6568,1.7296 c -1.9914,2.0785 -2.3933,2.1006 -4.6508,0.2563 l -1.7519,-1.4309 2.0898,-2.0898 z m -28.9042,0.055 c 1.0167,-0.016 1.4598,0.9161 1.0238,2.2903 -0.2339,0.7368 -0.7083,1.0592 -1.1679,1.0361 -0.5908,-0.03 -1.1571,-0.6309 -1.1571,-1.6588 0,-0.8804 0.3779,-1.5179 0.9679,-1.6315 0.1171,-0.023 0.2282,-0.034 0.3333,-0.036 z m 51.2346,0.7472 c -0.035,0 -0.067,0 -0.095,0.01 -0.3835,0.1278 -1.2214,1.1296 -1.8619,2.2262 -0.9032,1.5466 -1.214,3.345 -1.387,8.0171 -0.1905,5.1475 -0.032,6.5501 1.0934,9.6454 1.1046,3.0387 3.3363,6.9576 6.1221,10.7502 0.933,1.2701 2.7748,0.6259 4.1776,-1.4609 2.6194,-3.8965 2.365,-12.6762 -0.5494,-18.9652 -1.788,-3.8584 -6.4,-10.1055 -7.4998,-10.2211 z m -39.4575,1.0232 c -0.6695,0 -1.3515,0.2705 -1.9456,0.7049 l -0.1023,0.08 c -0.9557,0.7427 -1.6594,1.9081 -1.6594,3.0396 0,0.8181 0.6452,2.1324 1.4341,2.9212 1.7627,1.7628 2.4928,1.7912 4.225,0.1639 2.5082,-2.3564 1.222,-6.9097 -1.9518,-6.9097 z m -24.1107,1.3183 c -1.27,0 -2.3774,0.7608 -2.9476,2.1373 -0.8775,2.1185 -0.3273,4.0509 1.3451,4.7253 1.7663,0.7123 1.9817,0.6958 3.9218,-0.3075 1.2742,-0.6589 1.7246,-1.307 1.7146,-2.4835 -0.011,-1.9416 -0.4588,-2.6624 -2.2366,-3.5993 -0.6092,-0.321 -1.22,-0.4743 -1.7973,-0.4723 z m 23.5774,1.1157 c 0.06,0 0.1218,0 0.186,0.014 0.5624,0.1083 1.0222,0.6974 1.0222,1.309 0,1.1621 -0.953,1.8143 -1.6433,1.124 -0.8059,-0.8059 -0.4587,-2.4129 0.4351,-2.4474 z m -22.903,0.6904 c 0.5914,0.015 1.0315,0.5644 1.0315,1.5224 0,1.4175 -1.4798,1.9377 -2.3906,0.8402 -0.5819,-0.7012 -0.5443,-1.0498 0.1933,-1.7875 0.4017,-0.4016 0.811,-0.5844 1.1658,-0.5751 z m -17.6842,0.3901 c 0.1706,0 1.3615,0.898 2.6464,1.9849 2.3197,1.9622 2.3284,1.9844 1.2242,3.2045 -1.446,1.5979 -2.0977,1.5496 -3.9388,-0.2915 -1.3433,-1.3432 -1.4458,-1.7171 -0.8811,-3.2132 0.3515,-0.9314 0.7787,-1.6847 0.9493,-1.6847 z m 81.256,0.012 c 0.095,-0.016 0.8447,1.1028 1.7441,2.6091 2.624,4.3947 4.0828,9.6881 4.1398,15.0219 0.027,2.5499 -0.1065,4.7924 -0.2976,4.9836 -0.1912,0.1911 -0.3478,-0.2071 -0.3478,-0.8847 0,-0.6776 -0.8977,-4.2053 -1.9952,-7.8393 -1.6549,-5.4799 -3.2956,-12.4751 -3.2536,-13.8725 3e-4,-0.011 0,-0.017 0.01,-0.018 z m -28.8964,0.5467 1.9208,1.9818 1.9208,1.9818 -1.8588,2.1167 c -1.0222,1.1642 -2.0283,2.1005 -2.236,2.0795 -1.0732,-0.1062 -4.1727,-2.0114 -4.1507,-2.5518 0.014,-0.3434 1.0102,-1.7461 2.2144,-3.1166 z m 27.912,3.7585 c 0.2228,0 0.3798,0.2142 0.3798,0.5782 0,0.4855 1.0185,4.1161 2.2629,8.0683 1.2446,3.9523 2.4395,8.1721 2.6557,9.3772 0.2164,1.2052 0.2805,2.1911 0.1426,2.1911 -0.1378,0 -1.454,-2.4318 -2.9244,-5.4044 -2.2268,-4.502 -2.7319,-6.1519 -3.0261,-9.8758 -0.2289,-2.8987 -0.1346,-4.6061 0.2682,-4.855 0.085,-0.053 0.167,-0.079 0.2413,-0.08 z m -74.0213,1.3947 1.8479,2.3332 1.8475,2.3327 -1.4377,0.942 c -1.8362,1.2031 -1.7614,1.2169 -3.1889,-0.5979 -1.4586,-1.8543 -1.4603,-1.9008 -0.1272,-3.6344 z m -23.0544,0.058 c -1.9862,0.089 -5.5763,4.5046 -6.4348,8.2238 -1.4275,6.1844 -0.7459,12.3346 1.7668,15.9427 0.6155,0.8837 1.351,1.6071 1.6341,1.6071 0.8455,0 3.3429,-3.6159 5.0043,-7.245 1.2975,-2.8341 1.5573,-4.2347 1.5673,-8.4476 0.013,-5.5201 -0.999,-8.9053 -2.9776,-9.9642 -0.1663,-0.089 -0.3547,-0.126 -0.5601,-0.1168 z m 62.7569,2.9854 c 0.1667,0 1.1894,0.6766 2.2732,1.5032 l 1.971,1.5028 -1.5715,2.2727 c -0.8641,1.25 -1.7028,2.2614 -1.8635,2.2474 -0.3902,-0.034 -4.3275,-1.7435 -4.5847,-1.9906 -0.2518,-0.2418 3.3588,-5.5355 3.7755,-5.5355 z m -15.4776,0.6144 c -2.0201,0 -4.1636,1.552 -4.1636,3.7259 0,0.8363 0.6316,1.9152 1.5394,2.6293 h 5e-4 c 2.2273,1.752 4.0895,1.5673 5.1651,-0.5127 1.1459,-2.2166 1.126,-3.4756 -0.076,-4.8038 -0.6542,-0.723 -1.5472,-1.0404 -2.4654,-1.0387 z m 31.2756,0.5524 c -1.6307,0.027 -2.7182,0.9587 -2.7182,2.9533 0,5.6009 7.8961,16.9612 14.0198,20.1704 3.9348,2.0621 4.3925,1.7786 4.3465,-2.6934 -0.046,-4.4035 -1.8548,-8.9327 -5.4927,-13.7511 -3.2118,-4.254 -7.4377,-6.7237 -10.1554,-6.6792 z m -31.9071,1.2935 c 0.1669,-0.01 0.3394,0.034 0.5069,0.1379 0.3494,0.216 0.6351,0.9029 0.6351,1.5266 0,1.3564 -1.6401,1.5239 -2.1409,0.2186 -0.3427,-0.8929 0.2757,-1.8512 0.9989,-1.8831 z m -46.0143,0.4614 c 0.3582,0 0.4585,1.8252 0.2641,4.8204 -0.3379,5.205 -2.6764,12.6598 -2.7414,8.7385 -0.052,-3.1393 1.8517,-13.5589 2.4773,-13.5589 z m 27.5229,0.152 2.1689,2.6995 c 1.1927,1.4846 2.1128,2.7567 2.0448,2.8267 -0.068,0.07 -1.0676,0.5213 -2.2205,1.0031 l -2.096,0.8759 -1.5426,-2.3311 -1.543,-2.3311 1.5942,-1.3715 z m -30.1728,0.057 c 0.091,-0.038 0.029,0.2909 -0.1225,0.9597 -0.1819,0.8034 -0.5004,3.9019 -0.7075,6.8858 -0.2072,2.9841 -0.6371,5.5869 -0.9555,5.7837 -1.0233,0.6325 -0.1354,-10.42 0.9953,-12.3905 0.4571,-0.7965 0.6997,-1.2008 0.7902,-1.2387 z m 81.8849,0.401 c 1.6252,-0.03 7.8101,6.7552 10.0588,11.2097 2.7248,5.3979 1.7581,5.5237 -2.405,0.3132 -4.257,-5.3281 -8.2494,-11.0899 -7.9158,-11.4236 0.065,-0.065 0.1536,-0.097 0.262,-0.099 z m -1.9446,1.4682 c 0.2553,0.071 1.083,1.0939 2.1575,2.7057 1.4326,2.1491 4.3729,6.0271 6.534,8.6181 2.1611,2.591 3.7695,4.7114 3.5739,4.7114 -1.8065,0 -11.3615,-12.2381 -12.3176,-15.7763 -0.054,-0.2009 -0.033,-0.2827 0.052,-0.2589 z m -60.1059,2.1223 c -0.6652,-0.044 -1.5582,0.4414 -3.0515,1.4304 -4.4052,2.9174 -9.8376,8.93 -12.175,13.4757 -0.9521,1.852 -1.3221,6.6307 -0.5715,7.3814 2.0412,2.0412 11.3684,-4.4293 16.029,-11.1197 2.1744,-3.1214 2.7574,-6.9044 1.4531,-9.4268 -0.5818,-1.125 -1.0189,-1.6974 -1.6841,-1.741 z m 39.8632,1.4067 c 0.481,-0.021 1.0636,0.293 1.956,0.8195 l 2.0856,1.231 -1.2015,2.8902 c -1.2892,3.1021 -1.404,3.1545 -4.6405,2.1152 l -2.1348,-0.6853 1.4118,-2.9001 c 1.2021,-2.4691 1.7217,-3.4355 2.5234,-3.4705 z m -24.2548,1.404 c 0.409,0 3.4517,5.2665 3.1868,5.5159 -0.1194,0.1124 -1.1925,0.6087 -2.3848,1.1028 l -2.1678,0.8982 -1.1922,-1.9286 c -0.6555,-1.0606 -1.1917,-2.1767 -1.1917,-2.48 0,-0.5199 3.1226,-3.1083 3.7497,-3.1083 z m -17.4367,0.4139 c 0.3589,-0.019 0.093,0.7172 -0.9839,2.218 -2.9649,4.131 -9.8697,12.188 -9.8697,11.5166 0,-0.7237 5.975,-9.1578 8.092,-11.4226 1.4198,-1.5189 2.4027,-2.293 2.7616,-2.312 z m 2.1451,0.1706 c 0.6742,0 -0.1254,2.9344 -1.3534,4.9666 -1.0929,1.8088 -6.9707,7.8517 -6.9707,7.1665 0,-0.2119 1.2486,-2.0462 2.7751,-4.0757 1.5265,-2.0297 3.2956,-4.6726 3.931,-5.8736 0.6355,-1.2009 1.3636,-2.1838 1.618,-2.1838 z m 19.683,6.3975 1.1881,2.3285 c 1.5878,3.1122 1.5305,3.3854 -0.9281,4.4127 -1.164,0.4864 -2.2987,0.8842 -2.5213,0.8842 -0.4096,0 -2.5691,-4.1522 -2.2531,-4.3321 0.094,-0.053 1.1486,-0.8166 2.343,-1.6955 z m 14.7981,0.1964 2.5275,1.4128 2.527,1.4123 -0.9581,2.0097 c -0.5271,1.1054 -1.1068,1.9801 -1.2883,1.9431 -0.1815,-0.037 -1.3193,-0.2592 -2.528,-0.4936 -1.2087,-0.2344 -2.3381,-0.5671 -2.51,-0.7389 -0.1718,-0.1718 0.26,-1.4894 0.9592,-2.9285 z m 17.7524,5.6823 c -3.0101,-0.01 -8.555,2.1146 -8.555,3.2716 0,2.1963 6.6027,6.5995 12.2188,8.1489 1.4745,0.4067 4.4232,0.7627 6.5531,0.7917 4.6832,0.063 5.731,-0.7152 4.3931,-3.2654 -2.4038,-4.5818 -9.5152,-8.9368 -14.61,-8.9468 z m 35.0676,1.2005 c 0.4177,-0.015 0.8528,0.2172 1.2837,0.7363 0.3533,0.4258 0.9312,2.0692 1.2841,3.652 0.937,4.2023 -0.2607,7.3721 -2.9972,7.9318 -2.0587,0.4211 -4.6292,2.84 -4.6292,4.3564 0,0.48 0.3942,1.6358 0.8764,2.5683 1.2032,2.3267 0.3157,4.0831 -3.2225,6.3758 -3.5046,2.2709 -6.4187,2.9728 -6.4187,1.5462 0,-1.8083 1.1719,-3.2143 4.3992,-5.2788 1.7584,-1.1248 3.1967,-2.2898 3.1967,-2.589 0,-0.2991 -0.8948,-1.097 -1.9885,-1.773 -2.6672,-1.6484 -6.1914,-5.6194 -6.1914,-6.9763 0,-2.9569 3.6738,-3.3234 7.289,-0.7271 3.8066,2.7337 4.2903,2.5171 4.3243,-1.9384 0.035,-4.613 1.3023,-7.8296 2.7941,-7.8842 z m -79.6215,0.3911 c -1.0151,-9e-4 -2.1552,0.1431 -3.3238,0.4512 -7.718,2.0349 -11.7386,4.2579 -14.4358,7.9814 -2.0926,2.8886 -2.1909,3.827 -0.4357,4.1651 3.2734,0.6305 8.6929,0.3176 12.4246,-0.7172 3.2538,-0.9023 4.515,-1.6027 6.2689,-3.483 1.2076,-1.2946 2.1957,-2.8742 2.1957,-3.5104 0,-0.6362 0.2626,-1.319 0.584,-1.5177 0.3214,-0.1986 0.5844,-0.8596 0.5844,-1.4682 0,-1.1966 -1.629,-1.8992 -3.8623,-1.9012 z m 15.4167,0.2259 1.0097,2.6437 c 0.5681,1.4873 0.7883,2.8647 0.5039,3.1487 -0.278,0.2776 -1.5852,0.677 -2.9048,0.8878 -2.1779,0.3479 -2.433,0.2564 -2.7673,-0.9927 -0.6154,-2.2989 -0.4681,-2.6259 1.8868,-4.1843 z m 7.8512,0.01 1.837,0.7953 c 1.0105,0.4372 2.2597,0.9226 2.7761,1.079 0.8582,0.2599 0.8604,0.5398 0.027,3.2561 -0.5016,1.6345 -1.0554,2.9509 -1.231,2.9249 -0.1755,-0.026 -1.5441,-0.5747 -3.0411,-1.2195 l -2.7218,-1.1726 1.1772,-2.8313 z m 20.1367,0.507 c 3.6268,0 11.1524,3.898 12.1254,6.2807 0.1606,0.4017 0.2405,0.6994 0.1705,0.6604 -3.8107,-2.0984 -6.6722,-3.482 -9.4764,-4.5811 -4.3721,-1.7137 -5.1446,-2.36 -2.8195,-2.36 z m -4.1966,1.5373 c 1.2878,0.1218 6.6586,2.195 9.9699,3.9171 3.6381,1.892 1.8461,1.9892 -2.9538,0.1602 -3.9154,-1.492 -7.2898,-3.3448 -7.2998,-4.0029 -6e-4,-0.069 0.1,-0.092 0.2837,-0.074 z m -38.8679,0.3215 c 0.188,-0.017 0.339,-0.016 0.447,0.01 0.5667,0.1101 -2.2954,1.4445 -6.3593,2.9657 -7.6126,2.8494 -8.0946,2.9947 -8.0946,2.4371 0,-0.9195 11.1857,-5.158 14.0069,-5.4079 z m 0.5079,2.2122 c 0.061,0 0.093,0.01 0.093,0.033 0,0.9287 -3.6093,3.4743 -5.7236,4.0369 -3.4182,0.9096 -7.6663,1.3541 -6.2549,0.6543 3.5451,-1.7578 10.9712,-4.6889 11.8855,-4.7238 z m 17.985,2.5621 2.8753,1.942 c 1.5814,1.0682 3.2086,1.942 3.6163,1.942 0.7978,0 0.9372,1.2545 0.3731,3.3595 -0.3718,1.3873 -0.6313,1.4428 -3.4298,0.7307 -0.9641,-0.2453 -3.2532,-0.4772 -5.0865,-0.5152 l -3.3331,-0.069 -0.3886,-2.0723 c -0.2136,-1.1398 -0.2915,-2.1476 -0.1726,-2.2386 0.119,-0.091 1.4153,-0.8215 2.8809,-1.6226 z m -49.1242,1.7043 c 1.4321,-0.013 2.1105,1.6367 1.7446,4.5171 -0.1837,1.4461 -0.1242,2.9453 0.1323,3.3315 0.2742,0.413 2.2637,0.774 4.8313,0.8765 3.9145,0.1563 4.3834,0.2999 4.5397,1.3937 0.096,0.6708 -0.1871,1.52 -0.6289,1.8867 -0.4419,0.3667 -1.7324,1.0547 -2.868,1.5291 -2.0078,0.839 -2.083,0.8225 -2.7321,-0.602 -0.367,-0.8057 -1.5962,-1.8531 -2.7317,-2.3275 -2.129,-0.8896 -2.4582,-1.4334 -3.992,-6.5981 l -0.9038,-3.0432 1.5002,-0.6837 c 0.4071,-0.1855 0.778,-0.277 1.1084,-0.2801 z m 108.8456,6.2823 c 0.3319,-0.033 0.4322,0.4829 -0.01,1.4485 -0.3661,0.8034 -0.8862,1.4604 -1.156,1.4604 -0.6456,0 -0.6188,-0.4213 0.1143,-1.7911 0.3932,-0.7348 0.7914,-1.0922 1.0495,-1.1178 z m -35.2516,1.4542 c -7.3616,-0.01 -9.3465,0.3969 -10.25,2.0852 -1.1782,2.2015 2.5388,6.3375 7.0362,7.8295 4.4642,1.4808 10.4437,0.4181 16.0151,-2.8469 3.0027,-1.7597 3.1775,-2.1963 1.5368,-3.837 -2.0348,-2.0348 -7.3128,-3.2208 -14.3381,-3.2308 z m -28.4892,0.8708 h 5.118 5.1186 l -0.3623,2.191 c -0.1992,1.2052 -0.3684,2.7828 -0.3684,3.5058 -0.01,1.2367 -0.2479,1.3146 -4.0623,1.3146 -2.2306,0 -4.1866,-0.2123 -4.347,-0.4718 -0.1604,-0.2595 -0.4728,-1.837 -0.6941,-3.5057 z m 24.2719,1.8267 c 4.0218,0.037 9.6295,0.4461 10.9368,0.9932 1.1208,0.4691 -0.2391,0.6049 -5.8431,0.5809 -7.864,-0.033 -9.3487,-0.2218 -9.3487,-1.187 0,-0.297 1.8419,-0.4091 4.255,-0.3871 z m -40.6709,0.5101 c -3.9155,0 -10.9797,1.8861 -12.0944,3.2292 -1.6956,2.0431 3.2611,4.6898 10.2754,5.487 6.9821,0.7936 11.9613,-0.4116 13.2333,-3.2034 0.6316,-1.386 0.5603,-1.682 -0.6408,-2.6546 -1.9563,-1.5841 -6.7589,-2.8582 -10.7735,-2.8582 z m -27.9807,0.2925 1.2991,1.2536 c 0.7146,0.6896 1.1793,1.6097 1.0325,2.0449 -0.1611,0.4776 -0.6767,-0.019 -1.2997,-1.2537 z m 29.3382,2.1967 c 1.4461,-0.01 3.4181,0.1873 4.3822,0.4326 v 5e-4 l 1.7529,0.4459 -2.0449,-0.014 c -1.1248,-0.01 -3.0966,-0.2023 -4.3821,-0.4325 l -2.3374,-0.4186 z m 46.4685,0.1401 c 8.3373,0 8.9194,0.3692 2.2087,1.3999 v -5e-4 c -4.7908,0.7362 -5.0538,0.736 -7.6011,-6e-4 -3.6402,-1.0528 -2.3063,-1.3988 5.3924,-1.3988 z m -51.8273,1.4691 c 2.9691,-0.03 6.7128,0.09 9.4847,0.3798 2.611,0.2729 3.3731,0.5211 2.5688,0.8357 -1.2081,0.4725 -12.391,0.5537 -14.8751,0.108 -0.8034,-0.1441 -1.7104,-0.5027 -2.0158,-0.7969 -0.3267,-0.3147 1.8682,-0.4962 4.8374,-0.5266 z m -19.9957,1.9146 c 1.4437,-0.1223 8.1179,3.8092 8.1179,4.9041 0,1.3279 -2.8791,1.698 -4.8917,0.6289 -1.5641,-0.8309 -4.0791,-4.8149 -3.4417,-5.4523 0.046,-0.046 0.1193,-0.073 0.2155,-0.081 z m 48.5831,0.5638 c 0.6136,-0.062 0.7276,0.4839 0.7188,2.5869 0,1.5481 -0.2021,3.0774 -0.4382,3.3988 -0.2361,0.3213 -1.8098,0.6578 -3.497,0.7478 l -3.0675,0.1638 v -2.8877 -2.8877 l 2.4836,-0.386 c 1.3658,-0.2124 2.9433,-0.5165 3.5057,-0.6754 0.1092,-0.031 0.2069,-0.052 0.2946,-0.061 z m 32.7293,5.794 c -4.6395,0.086 -12.1071,2.8634 -16.4502,7.1334 -3.5618,3.5018 -4.9824,6.3197 -3.8649,7.6662 1.1066,1.3334 4.2538,1.0573 10.0407,-0.8816 7.5213,-2.5199 13.2846,-6.92 14.285,-10.9063 0.5385,-2.1455 -1.2271,-3.0632 -4.0106,-3.0117 z m -0.5034,2.6608 c 0.2904,-0.014 0.417,0.046 0.3235,0.1974 -0.1936,0.3131 -1.6364,1.22 -3.206,2.0154 -1.5697,0.7955 -5.2323,2.8883 -8.139,4.6509 -2.9067,1.7626 -5.2845,3.0024 -5.2845,2.7548 0,-0.9724 5.1236,-5.327 7.8879,-6.7039 2.8269,-1.4081 7.1599,-2.8545 8.4181,-2.9146 z m -60.9394,0.2579 c -3.5721,-0.089 -6.7851,0.8458 -6.7851,2.5383 0,2.0122 7.0985,6.9186 13.1465,9.0863 3.4653,1.2421 8.837,1.4762 9.219,0.402 0.7776,-2.1866 -4.7618,-8.5075 -9.3792,-10.7022 -1.7854,-0.8485 -4.0579,-1.2709 -6.2012,-1.3244 z m 28.8571,0.3405 v 3.2872 c 0,1.8076 -0.1971,3.2403 -0.4382,3.1843 -0.241,-0.056 -1.556,-0.2026 -2.9218,-0.3256 l -2.483,-0.2238 v -2.5957 c 0,-2.1485 0.1887,-2.5957 1.0955,-2.5957 0.6026,0 1.917,-0.1644 2.9213,-0.3653 z m 32.3996,2.1751 c 0.103,0.038 -0.2069,0.3553 -0.8475,0.9224 -1.1248,0.9958 -2.9654,2.2834 -4.0902,2.8608 -2.0561,1.0555 -5.2189,2.1713 -4.6741,1.649 0.1606,-0.154 2.6583,-1.6393 5.5506,-3.3 2.4204,-1.39 3.6643,-2.0679 3.9915,-2.1312 0.032,-0.01 0.055,-0.01 0.07,-10e-4 z m -60.8304,0.4072 c 1.7406,0.071 6.5317,2.0731 7.4492,3.1786 0.8275,0.997 1.1589,1.0835 -4.3512,-1.1364 -2.9099,-1.1723 -4.156,-1.9151 -3.4034,-2.0298 0.087,-0.013 0.1894,-0.017 0.3054,-0.012 z m -3.4613,1.2692 c 1.2629,-0.1462 13.7785,5.2167 13.7785,5.9474 0,0.3973 -0.5588,0.3032 -3.2137,-0.5416 -2.9727,-0.9459 -11.0193,-5.0055 -10.6511,-5.3738 0.017,-0.017 0.046,-0.027 0.086,-0.032 z m 31.7495,4.6472 0.3587,2.9818 c 0.1971,1.6399 0.3632,3.5732 0.3632,4.2963 0,1.1889 -0.2601,1.308 -2.7703,1.247 -4.8033,-0.1173 -4.9004,-0.1962 -4.47,-3.6298 0.2084,-1.6621 0.5435,-3.1915 0.7446,-3.3987 0.2011,-0.2071 1.5823,-0.6285 3.0696,-0.9364 z" transform="translate(-227.90166,61.9688) translate(-8525.6049,-1949.6676)"/>
</svg>
